<svg class="Apljk _11dQc _3YIV2 _1Jd5C" version="1.1" viewBox="0 0 32 32" width="32" height="32" aria-labelledby="icon-title-217 icon-desc-218" aria-hidden="false"><path d="M29.8 26.6h-27.6c-.7 0-1.2.6-1.2 1.2v2c0 .6.6 1.2 1.2 1.2h27.6c.7 0 1.2-.6 1.2-1.2v-2c.1-.7-.6-1.2-1.2-1.2zM15.1 23.8c.2.2.6.3.9.3s.7-.1.9-.3l8.8-8.5c.3-.3.4-.6.4-.9 0-.4-.1-.7-.5-1l-1.4-1.3c-.4-.5-1.2-.5-1.7 0l-4.3 4.2v-14.1c0-.6-.5-1.2-1.2-1.2h-2c-.7 0-1.2.6-1.2 1.2v14.1l-4.3-4.2c-.5-.5-1.3-.5-1.7 0l-1.4 1.3c-.4.3-.5.6-.5 1 0 .3.1.6.4.9l8.8 8.5z"></path></svg>
