<?xml version="1.0" encoding="UTF-8"?><!DOCTYPE svg PUBLIC "-//W3C//DTD SVG 1.1//EN" "http://www.w3.org/Graphics/SVG/1.1/DTD/svg11.dtd"><svg xmlns="http://www.w3.org/2000/svg"><symbol id="download" viewBox="0 0 32 32"><path d="M29.8 26.6H2.2c-.7 0-1.2.6-1.2 1.2v2c0 .6.6 1.2 1.2 1.2h27.6c.7 0 1.2-.6 1.2-1.2v-2c.1-.7-.6-1.2-1.2-1.2zm-14.7-2.8c.2.2.6.3.9.3s.7-.1.9-.3l8.8-8.5c.3-.3.4-.6.4-.9 0-.4-.1-.7-.5-1l-1.4-1.3c-.4-.5-1.2-.5-1.7 0l-4.3 4.2V2.2c0-.6-.5-1.2-1.2-1.2h-2c-.7 0-1.2.6-1.2 1.2v14.1l-4.3-4.2c-.5-.5-1.3-.5-1.7 0l-1.4 1.3c-.4.3-.5.6-.5 1 0 .3.1.6.4.9l8.8 8.5z"/></symbol><symbol id="elipsis" viewBox="0 0 32 32"><path d="M7 15.5C7 17.4 5.4 19 3.5 19S0 17.4 0 15.5 1.6 12 3.5 12 7 13.6 7 15.5zM28.5 12c-1.9 0-3.5 1.6-3.5 3.5s1.6 3.5 3.5 3.5 3.5-1.6 3.5-3.5-1.6-3.5-3.5-3.5zM16 12c-1.9 0-3.5 1.6-3.5 3.5S14.1 19 16 19s3.5-1.6 3.5-3.5S17.9 12 16 12z"/></symbol><symbol id="like-icon" viewBox="0 0 32 32"><path d="M17.4 29c-.8.8-2 .8-2.8 0L2.3 16.2C-.8 13.1-.8 8 2.3 4.8c3.1-3.1 8.2-3.1 11.3 0L16 7.6l2.3-2.8c3.1-3.1 8.2-3.1 11.3 0 3.1 3.1 3.1 8.2 0 11.4L17.4 29z"/></symbol><symbol id="plus" viewBox="0 0 32 32"><path d="M30.7 12.9H19.1V1.3c0-.7-.6-1.3-1.3-1.3h-3.5c-.7 0-1.3.6-1.3 1.3v11.6H1.3c-.7 0-1.3.6-1.3 1.3v3.5c0 .7.6 1.3 1.3 1.3h11.6v11.6c0 .7.6 1.3 1.3 1.3h3.5c.7 0 1.3-.6 1.3-1.3V19.1h11.6c.7 0 1.3-.6 1.3-1.3v-3.5c.1-.8-.5-1.4-1.2-1.4z"/></symbol><symbol id="unsplash" viewBox="0 0 104 90"><title>Unsplash</title><path d="M52.2 36.1c-8.5 0-15.5 6.9-15.5 15.5S43.7 67 52.2 67s15.5-6.9 15.5-15.5-6.9-15.4-15.5-15.4zM90 13.7H78l-2.7-7.3C73.9 2.9 69.7 0 66 0H38.5c-3.8 0-7.9 2.9-9.3 6.4l-2.7 7.3h-12C6.9 13.7.8 19.9.8 27.4v48.1c0 7.6 6.2 13.7 13.7 13.7H90c7.6 0 13.7-6.2 13.7-13.7v-48c.1-7.6-6.1-13.8-13.7-13.8zM52.2 75.6c-13.3 0-24-10.8-24-24s10.8-24 24-24c13.3 0 24 10.8 24 24s-10.7 24-24 24z" fill="#FFF" fill-rule="evenodd"/></symbol></svg>